# xmcd
#
# Track frame offsets: 
#        150
#        13190
#        24535
#        41965
#        54045
#        65600
#        77230
#        90555
#        100260
#        111660
#        134475
#        155260
#        167125
#        179037
#        180387
#        216634
#        230294
#        246804
#        263451
#        281376
#
# Disc length: 3905 seconds
#
# Revision: 3
# Processed by: cddbd v1.5.2PL0 Copyright (c) Steve Scherf et al.
# Submitted via: ExactAudioCopyFreeDBPlugin 1.0
#
DISCID=1a0f3f14
DTITLE=Various Artist - Duane Allman  -  The Sessions
DYEAR=2004
DGENRE=Southern Rock
TTITLE0=Clarence Carter - The Road of Love
TTITLE1=Wilson Pickett - Save Me
TTITLE2=Wilson Pickett - Hey Jude
TTITLE3=Wilson Pickett - Toe Hold
TTITLE4=Wilson Pickett - My Own Style Of Loving
TTITLE5=Wilson Pickett - Born To Be Wild
TTITLE6=Arthur Conley - Ob-La-Di, Ob-La-Da
TTITLE7=Arthur Conley - Stuff You Gotta Watch
TTITLE8=Arthur Conley - Speak Her Name
TTITLE9=Arthur Conley - King Curtis - That Can't Be My Baby (Arthur Co
TTITLE9=nley) - Hey Joe (King Curtis)
TTITLE10=King Curtis - Foot Pattin'
TTITLE11=King Curtis - The Weight
TTITLE12=King Curtis - Games People Play
TTITLE13=Duane Allman (Solo) - Goin' Down Slow (intro)
TTITLE14=Duane Allman (Solo) - Goin' Down Slow (continued)
TTITLE15=Boz Scaggs - I'm Easy
TTITLE16=Boz Scaggs - Now You're Gone
TTITLE17=Boz Scaggs - Finding Her
TTITLE18=Boz Scaggs - Look What I Got
TTITLE19=Boz Scaggs - Waitin' For A Train
EXTD=
EXTT0=
EXTT1=
EXTT2=
EXTT3=
EXTT4=
EXTT5=
EXTT6=
EXTT7=
EXTT8=
EXTT9=
EXTT10=
EXTT11=
EXTT12=
EXTT13=
EXTT14=
EXTT15=
EXTT16=
EXTT17=
EXTT18=
EXTT19=
PLAYORDER=
